RobotoDelta-opszmax-wghtmax-wdthmin.ufo
<glyph name="exclam" format="2">
  <advance width="646"/>
  <unicode hex="0021"/>
  <outline>
    <contour>
      <point x="144.77477785372523" y="126.21753246753246" type="qcurve" smooth="yes"/>
      <point x="144.77477785372523" y="65.17002734107997"/>
      <point x="236.6244190020506" y="-22.0"/>
      <point x="322.78644224196853" y="-22.0" type="qcurve" smooth="yes"/>
      <point x="408.9484654818865" y="-22.0"/>
      <point x="501.62261107313736" y="65.17002734107997"/>
      <point x="501.62261107313736" y="126.21753246753246" type="qcurve" smooth="yes"/>
      <point x="501.62261107313736" y="187.26503759398497"/>
      <point x="408.772969924812" y="274.43506493506493"/>
      <point x="322.61094668489403" y="274.43506493506493" type="qcurve" smooth="yes"/>
      <point x="236.6244190020506" y="274.43506493506493"/>
      <point x="144.77477785372523" y="187.26503759398497"/>
    </contour>
    <contour>
      <point x="199.06128161312373" y="450.84996582365005" type="line"/>
      <point x="446.66505468215996" y="450.84996582365005" type="line"/>
      <point x="471.13407382091594" y="1456.0" type="line"/>
      <point x="174.76775803144224" y="1456.0" type="line"/>
    </contour>
  </outline>
</glyph>
<glyph name="parenleft" format="2">
  <advance width="708"/>
  <unicode hex="0028"/>
  <outline>
    <contour>
      <point x="537.7318262098198" y="-436.0" type="qcurve"/>
      <point x="537.7318262098198" y="-257.9282055810668" type="line"/>
      <point x="437.895889742783" y="-183.77220691795898"/>
      <point x="351.085499823384" y="187.49940978944684"/>
      <point x="351.085499823384" y="508.0" type="qcurve" smooth="yes"/>
      <point x="351.085499823384" y="532.0" type="line" smooth="yes"/>
      <point x="351.085499823384" y="852.5005902105532"/>
      <point x="437.895889742783" y="1223.772206917959"/>
      <point x="537.7318262098198" y="1297.9282055810668" type="qcurve"/>
      <point x="537.7318262098198" y="1476.0" type="line"/>
      <point x="317.3581596608972" y="1368.4415400918404"/>
      <point x="99.71529494878135" y="908.9713882020487"/>
      <point x="99.71529494878135" y="525.0" type="qcurve" smooth="yes"/>
      <point x="99.71529494878135" y="515.0" type="line" smooth="yes"/>
      <point x="99.71529494878135" y="131.02861179795124"/>
      <point x="317.3581596608972" y="-328.44154009184035"/>
    </contour>
  </outline>
</glyph>
<glyph name="parenright" format="2">
  <advance width="708"/>
  <unicode hex="0029"/>
  <outline>
    <contour>
      <point x="170.71140939597313" y="-436.0" type="line"/>
      <point x="390.9569410102437" y="-328.44154009184035"/>
      <point x="608.7565524549628" y="131.02861179795124"/>
      <point x="608.7565524549628" y="515.0" type="qcurve" smooth="yes"/>
      <point x="608.7565524549628" y="525.0" type="line" smooth="yes"/>
      <point x="608.7565524549628" y="908.9713882020487"/>
      <point x="390.9569410102437" y="1368.4415400918404"/>
      <point x="170.71140939597313" y="1476.0" type="qcurve"/>
      <point x="170.71140939597313" y="1297.9282055810668" type="line"/>
      <point x="270.5529188065417" y="1223.881649475591"/>
      <point x="356.7152949487813" y="852.5005902105532"/>
      <point x="356.7152949487813" y="532.0" type="qcurve" smooth="yes"/>
      <point x="356.7152949487813" y="508.0" type="line" smooth="yes"/>
      <point x="356.7152949487813" y="187.49940978944684"/>
      <point x="270.5529188065417" y="-183.8816494755911"/>
      <point x="170.71140939597313" y="-257.9282055810668" type="qcurve"/>
    </contour>
  </outline>
</glyph>
<glyph name="plus" format="2">
  <advance width="1121"/>
  <unicode hex="002B"/>
  <outline>
    <contour>
      <point x="222.47958318615326" y="584.4000353232074" type="line"/>
      <point x="898.9510067114094" y="584.4000353232074" type="line"/>
      <point x="898.9510067114094" y="763.5999646767926" type="line"/>
      <point x="222.47958318615326" y="763.5999646767926" type="line"/>
    </contour>
    <contour>
      <point x="432.81165665842457" y="219.70222536206288" type="line"/>
      <point x="688.6189332391382" y="219.70222536206288" type="line"/>
      <point x="688.6189332391382" y="1128.2977746379372" type="line"/>
      <point x="432.81165665842457" y="1128.2977746379372" type="line"/>
    </contour>
  </outline>
</glyph>
<glyph name="comma" format="2">
  <advance width="575"/>
  <unicode hex="002C"/>
  <outline>
    <contour>
      <point x="60.39106288448392" y="-218.5046138072454" type="qcurve"/>
      <point x="211.57536226930964" y="-312.9324162679426" type="line"/>
      <point x="308.9287969924812" y="-238.22317156527683"/>
      <point x="426.5588653451811" y="-36.367566643882434"/>
      <point x="426.5588653451811" y="86.14798359535202" type="qcurve" smooth="yes"/>
      <point x="426.51674641148327" y="282.08407382091593" type="line"/>
      <point x="170.35423786739577" y="282.08407382091593" type="line"/>
      <point x="170.35423786739577" y="86.14798359535202" type="line" smooth="yes"/>
      <point x="170.35423786739577" y="-8.42053998632946"/>
      <point x="114.9075871496924" y="-152.35663021189336"/>
    </contour>
  </outline>
</glyph>
<glyph name="period" format="2">
  <advance width="610"/>
  <unicode hex="002E"/>
  <outline>
    <contour>
      <point x="129.30126452494875" y="143.34005468215994" type="qcurve" smooth="yes"/>
      <point x="129.30126452494875" y="74.78888975086909"/>
      <point x="220.57177033492823" y="-21.473513328776487"/>
      <point x="304.3467190704033" y="-21.473513328776487" type="qcurve" smooth="yes"/>
      <point x="389.79272043745726" y="-21.473513328776487"/>
      <point x="480.3921736158578" y="74.61339419379458"/>
      <point x="480.3921736158578" y="142.669002050581" type="qcurve" smooth="yes"/>
      <point x="480.3921736158578" y="210.86107313738893"/>
      <point x="389.79272043745726" y="306.9781271360219"/>
      <point x="305.0177717019822" y="306.9781271360219" type="qcurve" smooth="yes"/>
      <point x="220.57177033492823" y="306.9781271360219"/>
      <point x="129.30126452494875" y="210.86107313738893"/>
    </contour>
  </outline>
</glyph>
<glyph name="four" format="2">
  <advance width="895"/>
  <unicode hex="0034"/>
  <outline>
    <contour>
      <point x="450" y="0" type="line"/>
      <point x="723" y="0" type="line"/>
      <point x="723" y="1456" type="line"/>
      <point x="454" y="1456" type="line"/>
      <point x="31" y="524" type="line"/>
      <point x="31" y="336" type="line"/>
      <point x="866" y="336" type="line"/>
      <point x="866" y="509" type="line"/>
      <point x="552" y="509" type="line"/>
      <point x="525" y="509" type="line"/>
      <point x="268" y="509" type="line"/>
      <point x="440" y="968" type="line"/>
      <point x="450" y="968" type="line"/>
      <point x="450" y="426" type="line"/>
      <point x="450" y="394" type="line"/>
    </contour>
  </outline>
</glyph>
<glyph name="semicolon" format="2">
  <advance width="626"/>
  <unicode hex="003B"/>
  <outline>
    <contour>
      <point x="91.68777170198223" y="-218.5046138072454" type="qcurve"/>
      <point x="243.69657552973342" y="-312.9324162679426" type="line"/>
      <point x="337.7737115516063" y="-239.5521189336979"/>
      <point x="444.27292891319206" y="-36.367566643882434"/>
      <point x="444.27292891319206" y="86.81903622693096" type="qcurve" smooth="yes"/>
      <point x="444.2132604237867" y="270.55758714969244" type="line"/>
      <point x="202.4237867395762" y="270.55758714969244" type="line"/>
      <point x="202.4974948735475" y="86.14798359535202" type="line" smooth="yes"/>
      <point x="203.4237867395762" y="-8.245044429254957"/>
      <point x="146.20429596719072" y="-152.35663021189336"/>
    </contour>
    <contour>
      <point x="145.30126452494875" y="919.915071770335" type="qcurve" smooth="yes"/>
      <point x="145.30126452494875" y="855.0204176129473"/>
      <point x="231.74726589200273" y="762.3995215311005"/>
      <point x="312.71975393028026" y="762.3995215311005" type="qcurve" smooth="yes"/>
      <point x="394.69224196855777" y="762.3995215311005"/>
      <point x="481.1382433356118" y="855.1959131700219"/>
      <point x="481.1382433356118" y="920.0905673274094" type="qcurve" smooth="yes"/>
      <point x="481.1382433356118" y="984.9867205834602"/>
      <point x="394.4520313315702" y="1077.54995898838"/>
      <point x="312.61094668489403" y="1077.54995898838" type="qcurve" smooth="yes"/>
      <point x="231.770941675459" y="1077.54995898838"/>
      <point x="145.30126452494875" y="984.9867205834602"/>
    </contour>
  </outline>
</glyph>
<glyph name="equal" format="2">
  <advance width="867"/>
  <unicode hex="003D"/>
  <outline>
    <contour>
      <point x="138.97507947721652" y="382.1569233486401" type="line"/>
      <point x="728.987124690922" y="382.1569233486401" type="line"/>
      <point x="728.987124690922" y="549.1428823737195" type="line"/>
      <point x="138.97507947721652" y="549.1428823737195" type="line"/>
    </contour>
    <contour>
      <point x="138.97507947721652" y="798.8571176262805" type="line"/>
      <point x="728.987124690922" y="798.8571176262805" type="line"/>
      <point x="728.987124690922" y="965.84307665136" type="line"/>
      <point x="138.97507947721652" y="965.84307665136" type="line"/>
    </contour>
  </outline>
</glyph>
<glyph name="greater" format="2">
  <advance width="882"/>
  <unicode hex="003E"/>
  <outline>
    <contour>
      <point x="122.32087601554221" y="185.50008830801838" type="line"/>
      <point x="767.322889438361" y="587.5141292829389" type="line"/>
      <point x="767.322889438361" y="760.9715648180855" type="line"/>
      <point x="122.32087601554221" y="1162.4999116919817" type="line"/>
      <point x="122.32087601554221" y="940.7142352525609" type="line"/>
      <point x="509.9323595902508" y="674.0" type="line"/>
      <point x="122.32087601554221" y="407.2857647474391" type="line"/>
    </contour>
  </outline>
</glyph>
<glyph name="B" format="2">
  <advance width="1200"/>
  <unicode hex="0042"/>
  <outline>
    <contour>
      <point x="38" y="0" type="line"/>
      <point x="690" y="0" type="line" smooth="yes"/>
      <point x="905" y="0"/>
      <point x="1184" y="192"/>
      <point x="1184" y="406" type="qcurve" smooth="yes"/>
      <point x="1184" y="594"/>
      <point x="1043" y="743"/>
      <point x="948" y="761" type="qcurve"/>
      <point x="948" y="765" type="line"/>
      <point x="1022" y="793"/>
      <point x="1131" y="942"/>
      <point x="1131" y="1094" type="qcurve" smooth="yes"/>
      <point x="1131" y="1258"/>
      <point x="928" y="1456"/>
      <point x="717" y="1456" type="qcurve" smooth="yes"/>
      <point x="38" y="1456" type="line"/>
    </contour>
    <contour>
      <point x="540" y="324" type="line"/>
      <point x="540" y="592" type="line"/>
      <point x="580" y="592" type="line" smooth="yes"/>
      <point x="608" y="592"/>
      <point x="651" y="529"/>
      <point x="651" y="457" type="qcurve" smooth="yes"/>
      <point x="651" y="387"/>
      <point x="608" y="324"/>
      <point x="580" y="324" type="qcurve" smooth="yes"/>
    </contour>
    <contour>
      <point x="540" y="873" type="line"/>
      <point x="540" y="1109" type="line"/>
      <point x="564" y="1109" type="line" smooth="yes"/>
      <point x="592" y="1109"/>
      <point x="636" y="1053"/>
      <point x="636" y="993" type="qcurve" smooth="yes"/>
      <point x="636" y="929"/>
      <point x="592" y="873"/>
      <point x="564" y="873" type="qcurve" smooth="yes"/>
    </contour>
  </outline>
</glyph>
<glyph name="J" format="2">
  <advance width="1098"/>
  <unicode hex="004A"/>
  <outline>
    <contour>
      <point x="0" y="451" type="line" smooth="yes"/>
      <point x="0" y="199"/>
      <point x="250" y="-26"/>
      <point x="532" y="-26" type="qcurve" smooth="yes"/>
      <point x="810" y="-26"/>
      <point x="1064" y="239"/>
      <point x="1064" y="492" type="qcurve" smooth="yes"/>
      <point x="1064" y="1455" type="line"/>
      <point x="535" y="1455" type="line"/>
      <point x="535" y="423" type="line" smooth="yes"/>
      <point x="535" y="357"/>
      <point x="515" y="298"/>
      <point x="493" y="298" type="qcurve" smooth="yes"/>
      <point x="470" y="298"/>
      <point x="459" y="352"/>
      <point x="459" y="410" type="qcurve" smooth="yes"/>
      <point x="459" y="577" type="line"/>
      <point x="0" y="577" type="line"/>
    </contour>
  </outline>
</glyph>
<glyph name="M" format="2">
  <advance width="1625"/>
  <unicode hex="004D"/>
  <outline>
    <contour>
      <point x="38" y="0" type="line"/>
      <point x="525" y="0" type="line"/>
      <point x="525" y="568" type="line" smooth="yes"/>
      <point x="525" y="591"/>
      <point x="521" y="648"/>
      <point x="519" y="671" type="qcurve"/>
      <point x="526" y="671" type="line"/>
      <point x="528" y="648"/>
      <point x="538" y="592"/>
      <point x="542" y="568" type="qcurve" smooth="yes"/>
      <point x="640" y="0" type="line"/>
      <point x="986" y="0" type="line"/>
      <point x="1091" y="565" type="line" smooth="yes"/>
      <point x="1095" y="588"/>
      <point x="1106" y="644"/>
      <point x="1108" y="667" type="qcurve"/>
      <point x="1115" y="667" type="line"/>
      <point x="1113" y="644"/>
      <point x="1108" y="588"/>
      <point x="1108" y="565" type="qcurve"/>
      <point x="1108" y="0" type="line"/>
      <point x="1587" y="0" type="line"/>
      <point x="1587" y="1456" type="line"/>
      <point x="956" y="1456" type="line"/>
      <point x="860" y="950" type="line" smooth="yes"/>
      <point x="855" y="924"/>
      <point x="851" y="898"/>
      <point x="849" y="872" type="qcurve"/>
      <point x="846" y="872" type="line"/>
      <point x="844" y="898"/>
      <point x="841" y="923"/>
      <point x="836" y="950" type="qcurve" smooth="yes"/>
      <point x="740" y="1456" type="line"/>
      <point x="38" y="1456" type="line"/>
    </contour>
  </outline>
</glyph>
<glyph name="O" format="2">
  <advance width="1218"/>
  <unicode hex="004F"/>
  <outline>
    <contour>
      <point x="19.0" y="630" type="line" smooth="yes"/>
      <point x="19" y="304.0"/>
      <point x="320" y="-25.0"/>
      <point x="609" y="-25.0" type="qcurve" smooth="yes"/>
      <point x="900" y="-25.0"/>
      <point x="1199.0" y="304.0"/>
      <point x="1199.0" y="630" type="qcurve" smooth="yes"/>
      <point x="1199.0" y="826" type="line" smooth="yes"/>
      <point x="1199.0" y="1152.0"/>
      <point x="900" y="1481.0"/>
      <point x="609" y="1481.0" type="qcurve" smooth="yes"/>
      <point x="320" y="1481.0"/>
      <point x="19" y="1152.0"/>
      <point x="19.0" y="826" type="qcurve" smooth="yes"/>
    </contour>
    <contour>
      <point x="545" y="382" type="qcurve" smooth="yes"/>
      <point x="545" y="1072" type="line" smooth="yes"/>
      <point x="545.0" y="1167.0"/>
      <point x="575" y="1211"/>
      <point x="609" y="1211" type="qcurve" smooth="yes"/>
      <point x="642" y="1211"/>
      <point x="673.0" y="1167.0"/>
      <point x="673" y="1072" type="qcurve" smooth="yes"/>
      <point x="673" y="382" type="line" smooth="yes"/>
      <point x="673.0" y="287.0"/>
      <point x="642" y="245"/>
      <point x="609" y="245" type="qcurve" smooth="yes"/>
      <point x="575" y="245"/>
      <point x="545.0" y="287.0"/>
    </contour>
  </outline>
</glyph>
<glyph name="W" format="2">
  <advance width="1635"/>
  <unicode hex="0057"/>
  <outline>
    <contour>
      <point x="200" y="-4" type="line"/>
      <point x="733" y="-4" type="line"/>
      <point x="805" y="493" type="line" smooth="yes"/>
      <point x="808" y="514"/>
      <point x="810" y="566"/>
      <point x="811" y="591" type="qcurve"/>
      <point x="814" y="591" type="line"/>
      <point x="815" y="566"/>
      <point x="818" y="513"/>
      <point x="821" y="493" type="qcurve" smooth="yes"/>
      <point x="892" y="-4" type="line"/>
      <point x="1425" y="-4" type="line"/>
      <point x="1625" y="1456" type="line"/>
      <point x="1230" y="1456" type="line"/>
      <point x="1169" y="913" type="line" smooth="yes"/>
      <point x="1167" y="898"/>
      <point x="1159" y="799"/>
      <point x="1159" y="778" type="qcurve"/>
      <point x="1154" y="778" type="line"/>
      <point x="1153" y="799"/>
      <point x="1146" y="899"/>
      <point x="1145" y="913" type="qcurve" smooth="yes"/>
      <point x="1088" y="1456" type="line"/>
      <point x="607" y="1456" type="line"/>
      <point x="558" y="917" type="line" smooth="yes"/>
      <point x="556" y="900"/>
      <point x="543" y="802"/>
      <point x="542" y="781" type="qcurve"/>
      <point x="539" y="781" type="line"/>
      <point x="537" y="802"/>
      <point x="526" y="901"/>
      <point x="524" y="917" type="qcurve" smooth="yes"/>
      <point x="464" y="1456" type="line"/>
      <point x="0" y="1456" type="line"/>
    </contour>
  </outline>
</glyph>
<glyph name="asciicircum" format="2">
  <advance width="899"/>
  <unicode hex="005E"/>
  <outline>
    <contour>
      <point x="0.7152949487813451" y="720.0" type="line"/>
      <point x="307.8597668668315" y="720.0" type="line"/>
      <point x="449.6119745672907" y="1201.9503708936772" type="line"/>
      <point x="591.3641822677499" y="720.0" type="line"/>
      <point x="898.5086541858001" y="720.0" type="line"/>
      <point x="588.4413634758037" y="1456.0" type="line"/>
      <point x="311.29689155775344" y="1456.0" type="line"/>
    </contour>
  </outline>
</glyph>
<glyph name="f" format="2">
  <advance width="444"/>
  <unicode hex="0066"/>
  <outline>
    <contour>
      <point x="87" y="0" type="line"/>
      <point x="332" y="0" type="line"/>
      <point x="332" y="857" type="line"/>
      <point x="332" y="872" type="line"/>
      <point x="332" y="1098" type="line" smooth="yes"/>
      <point x="332.0" y="1190.0"/>
      <point x="377.0" y="1288.0"/>
      <point x="419" y="1288" type="qcurve" smooth="yes"/>
      <point x="439.0" y="1288.0"/>
      <point x="473.0" y="1282.0"/>
      <point x="486" y="1276" type="qcurve"/>
      <point x="493" y="1463" type="line"/>
      <point x="473.0" y="1470.0"/>
      <point x="428.0" y="1478.0"/>
      <point x="405" y="1478" type="qcurve" smooth="yes"/>
      <point x="252.0" y="1478.0"/>
      <point x="87.0" y="1281.0"/>
      <point x="87" y="1098" type="qcurve" smooth="yes"/>
    </contour>
    <contour>
      <point x="6.228187919463089" y="769.1490921935712" type="line"/>
      <point x="438.6820063581774" y="769.1490921935712" type="line"/>
      <point x="438.6820063581774" y="939.8640339102791" type="line"/>
      <point x="215.40246555987284" y="939.8640339102791" type="line"/>
      <point x="200.74086188625927" y="939.8640339102791" type="line"/>
      <point x="6.228187919463089" y="939.8640339102791" type="line"/>
    </contour>
  </outline>
</glyph>
<glyph name="h" format="2">
  <advance width="872"/>
  <unicode hex="0068"/>
  <outline>
    <contour>
      <point x="97.11515365595196" y="0.0" type="line"/>
      <point x="342" y="0" type="line"/>
      <point x="342" y="656" type="line"/>
      <point x="363.0" y="718.0"/>
      <point x="422.0" y="785.0"/>
      <point x="455" y="785" type="qcurve" smooth="yes"/>
      <point x="495.0" y="785.0"/>
      <point x="539.0" y="690.0"/>
      <point x="539" y="601" type="qcurve" smooth="yes"/>
      <point x="539" y="0" type="line"/>
      <point x="784" y="0" type="line"/>
      <point x="784" y="605" type="line" smooth="yes"/>
      <point x="784" y="775"/>
      <point x="651.0" y="958.0"/>
      <point x="528" y="958" type="qcurve" smooth="yes"/>
      <point x="460.0" y="958.0"/>
      <point x="364.0" y="899.0"/>
      <point x="342" y="844" type="qcurve"/>
      <point x="342" y="1458" type="line"/>
      <point x="97.11515365595196" y="1458.0" type="line"/>
    </contour>
  </outline>
</glyph>
<glyph name="n" format="2">
  <advance width="1147"/>
  <unicode hex="006E"/>
  <outline>
    <contour>
      <point x="32" y="0" type="line"/>
      <point x="526" y="0" type="line"/>
      <point x="526" y="602" type="line"/>
      <point x="534" y="637"/>
      <point x="560" y="660"/>
      <point x="580" y="660" type="qcurve" smooth="yes"/>
      <point x="604" y="660"/>
      <point x="621.0" y="634"/>
      <point x="621" y="588" type="qcurve" smooth="yes"/>
      <point x="621" y="0" type="line"/>
      <point x="1119" y="0" type="line"/>
      <point x="1119" y="605" type="line" smooth="yes"/>
      <point x="1119.0" y="765.0"/>
      <point x="933.0" y="958.0"/>
      <point x="768" y="958.0" type="qcurve" smooth="yes"/>
      <point x="643" y="958"/>
      <point x="521" y="900"/>
      <point x="487" y="846" type="qcurve"/>
      <point x="484" y="846" type="line"/>
      <point x="483" y="940" type="line"/>
      <point x="32" y="940" type="line"/>
    </contour>
  </outline>
</glyph>
<glyph name="v" format="2">
  <advance width="717"/>
  <unicode hex="0076"/>
  <outline>
    <contour>
      <point x="-2.9141646061462385" y="939.8640339102791" type="line"/>
      <point x="218" y="0" type="line"/>
      <point x="494" y="0" type="line"/>
      <point x="719.8199222889439" y="939.8640339102791" type="line"/>
      <point x="500.2680642882374" y="939.8640339102791" type="line"/>
      <point x="403" y="369" type="line" smooth="yes"/>
      <point x="397" y="335"/>
      <point x="386" y="267"/>
      <point x="381" y="233" type="qcurve"/>
      <point x="378" y="233" type="line"/>
      <point x="372" y="269"/>
      <point x="361" y="335"/>
      <point x="355" y="369" type="qcurve" smooth="yes"/>
      <point x="258.84977039915225" y="939.8640339102791" type="line"/>
    </contour>
  </outline>
</glyph>
<glyph name="braceleft" format="2">
  <advance width="694"/>
  <unicode hex="007B"/>
  <outline>
    <contour>
      <point x="572.5563157894737" y="-312.0" type="qcurve"/>
      <point x="572.5563157894737" y="-155.62839985870716" type="line"/>
      <point x="506.4542811727305" y="-155.62839985870716"/>
      <point x="421.73088304672405" y="-59.132921229860415"/>
      <point x="446.1357576827976" y="98.5948428117273" type="qcurve" smooth="yes"/>
      <point x="480.31779583186153" y="334.0" type="line" smooth="yes"/>
      <point x="494.8955068880254" y="419.26174496644296"/>
      <point x="421.21986223949136" y="535.9986753797244"/>
      <point x="319.99211586012007" y="574.0" type="qcurve"/>
      <point x="421.21986223949136" y="612.0013246202756"/>
      <point x="495.40981278700104" y="728.738255033557"/>
      <point x="480.31779583186153" y="814.0" type="qcurve" smooth="yes"/>
      <point x="446.1357576827976" y="1049.4051571882726" type="line" smooth="yes"/>
      <point x="421.73088304672405" y="1207.1329212298604"/>
      <point x="506.4542811727305" y="1303.628399858707"/>
      <point x="572.5563157894737" y="1303.628399858707" type="qcurve"/>
      <point x="572.5563157894737" y="1460.0" type="line"/>
      <point x="373.4054115153656" y="1460.0"/>
      <point x="156.0242635111268" y="1273.7190921935712"/>
      <point x="192.37317202401977" y="1071.9766866831508" type="qcurve" smooth="yes"/>
      <point x="227.04090427410807" y="836.5715294948782" type="line" smooth="yes"/>
      <point x="246.85400439468802" y="720.3777240162584"/>
      <point x="167.65099258212646" y="645.2859413634758"/>
      <point x="101.89244083362769" y="645.2859413634758" type="qcurve"/>
      <point x="101.89244083362769" y="502.7140586365242" type="line"/>
      <point x="167.65099258212646" y="502.7140586365242"/>
      <point x="246.85400439468802" y="428.10797008476595"/>
      <point x="227.04090427410807" y="311.4284705051219" type="qcurve" smooth="yes"/>
      <point x="192.37317202401977" y="76.02331331684917" type="line" smooth="yes"/>
      <point x="156.0242635111268" y="-125.71909219357117"/>
      <point x="373.4054115153656" y="-312.0"/>
    </contour>
  </outline>
</glyph>
<glyph name="bar" format="2">
  <advance width="570"/>
  <unicode hex="007C"/>
  <outline>
    <contour>
      <point x="168.77477785372523" y="-416.0" type="line"/>
      <point x="401.70366370471635" y="-416.0" type="line"/>
      <point x="401.70366370471635" y="1456.0" type="line"/>
      <point x="168.77477785372523" y="1456.0" type="line"/>
    </contour>
  </outline>
</glyph>
<glyph name="guillemetleft" format="2">
  <advance width="988"/>
  <unicode hex="00AB"/>
  <outline>
    <contour>
      <point x="303.16723772518543" y="181.42847050512188" type="line"/>
      <point x="543.6959554927588" y="181.42847050512188" type="line"/>
      <point x="301" y="602" type="line"/>
      <point x="543.6959554927588" y="1022.5715294948782" type="line"/>
      <point x="303.16723772518543" y="1022.5715294948782" type="line"/>
      <point x="47.71529494878135" y="612.0" type="line"/>
      <point x="47.71529494878135" y="592.0" type="line"/>
    </contour>
    <contour>
      <point x="705.9864888731897" y="181.42847050512188" type="line"/>
      <point x="946.5438184387142" y="181.42847050512188" type="line"/>
      <point x="703" y="602" type="line"/>
      <point x="946.5438184387142" y="1022.5715294948782" type="line"/>
      <point x="705.9864888731897" y="1022.5715294948782" type="line"/>
      <point x="450.56315789473683" y="612.0" type="line"/>
      <point x="450.56315789473683" y="592.0" type="line"/>
    </contour>
  </outline>
</glyph>
<glyph name="logicalnot" format="2">
  <advance width="853"/>
  <unicode hex="00AC"/>
  <outline>
    <contour>
      <point x="99.6917696926881" y="606.6568350406217" type="line"/>
      <point x="523" y="607" type="line"/>
      <point x="523" y="383" type="line"/>
      <point x="753.5602613917345" y="383.05740021193924" type="line"/>
      <point x="753.5602613917345" y="785.4288237371953" type="line"/>
      <point x="99.6917696926881" y="785.4288237371953" type="line"/>
    </contour>
  </outline>
</glyph>
<glyph name="hyphensoft" format="2">
  <advance width="452"/>
  <unicode hex="00AD"/>
  <outline>
    <contour>
      <point x="15.715294948781345" y="552.2999823383964" type="line"/>
      <point x="435.91034969975277" y="552.2999823383964" type="line"/>
      <point x="435.91034969975277" y="718.6571882726952" type="line"/>
      <point x="15.715294948781345" y="718.6571882726952" type="line"/>
    </contour>
  </outline>
</glyph>
<glyph name="macron" format="2">
  <advance width="816"/>
  <unicode hex="00AF"/>
  <outline>
    <contour>
      <point x="168.50097138820203" y="1189.9143412221829" type="line"/>
      <point x="647.0700282585659" y="1189.9143412221829" type="line"/>
      <point x="647.0700282585659" y="1346.1714941716707" type="line"/>
      <point x="168.50097138820203" y="1346.1714941716707" type="line"/>
    </contour>
  </outline>
</glyph>
<glyph name="plusminus" format="2">
  <advance width="1121"/>
  <unicode hex="00B1"/>
  <outline>
    <contour>
      <point x="239.6250971388202" y="634.899947015189" type="line"/>
      <point x="881.8054927587425" y="634.899947015189" type="line"/>
      <point x="881.8054927587425" y="802.4574355351466" type="line"/>
      <point x="239.6250971388202" y="802.4574355351466" type="line"/>
    </contour>
    <contour>
      <point x="442.6709890498057" y="381.13316849169905" type="line"/>
      <point x="678.7596008477569" y="381.13316849169905" type="line"/>
      <point x="678.7596008477569" y="1034.9992052278346" type="line"/>
      <point x="442.6709890498057" y="1034.9992052278346" type="line"/>
    </contour>
    <contour>
      <point x="239.6250971388202" y="87.83283292122924" type="line"/>
      <point x="881.8054927587425" y="87.83283292122924" type="line"/>
      <point x="881.8054927587425" y="254.3617096432356" type="line"/>
      <point x="239.6250971388202" y="254.3617096432356" type="line"/>
    </contour>
  </outline>
</glyph>
<glyph name="guillemetright" format="2">
  <advance width="988"/>
  <unicode hex="00BB"/>
  <outline>
    <contour>
      <point x="283.27721653126105" y="181.42847050512188" type="line"/>
      <point x="537.6959554927588" y="592.0" type="line"/>
      <point x="537.6959554927588" y="612.0" type="line"/>
      <point x="283.27721653126105" y="1022.5715294948782" type="line"/>
      <point x="41.71529494878135" y="1022.5715294948782" type="line"/>
      <point x="285" y="602" type="line"/>
      <point x="41.71529494878135" y="181.42847050512188" type="line"/>
    </contour>
    <contour>
      <point x="686.1250794772166" y="181.42847050512188" type="line"/>
      <point x="940.5438184387142" y="592.0" type="line"/>
      <point x="940.5438184387142" y="612.0" type="line"/>
      <point x="686.1250794772166" y="1022.5715294948782" type="line"/>
      <point x="444.56315789473683" y="1022.5715294948782" type="line"/>
      <point x="687" y="602" type="line"/>
      <point x="444.56315789473683" y="181.42847050512188" type="line"/>
    </contour>
  </outline>
</glyph>
<glyph name="Thorn" format="2">
  <advance width="1002"/>
  <unicode hex="00DE"/>
  <outline>
    <contour>
      <point x="125.14305898975627" y="0.0" type="line"/>
      <point x="387" y="0" type="line"/>
      <point x="387" y="277" type="line"/>
      <point x="481" y="277" type="line" smooth="yes"/>
      <point x="731" y="277"/>
      <point x="955.0" y="495.0"/>
      <point x="955" y="738" type="qcurve" smooth="yes"/>
      <point x="955.0" y="980.0"/>
      <point x="733.0" y="1197.0"/>
      <point x="486" y="1197" type="qcurve" smooth="yes"/>
      <point x="387" y="1197" type="line"/>
      <point x="387" y="1456" type="line"/>
      <point x="125.14305898975627" y="1456.0" type="line"/>
    </contour>
    <contour>
      <point x="387" y="456" type="line"/>
      <point x="387" y="1018" type="line"/>
      <point x="477" y="1018" type="line" smooth="yes"/>
      <point x="591" y="1018"/>
      <point x="694.0" y="886.0"/>
      <point x="694" y="738" type="qcurve" smooth="yes"/>
      <point x="694.0" y="589.0"/>
      <point x="593.0" y="456.0"/>
      <point x="481" y="456" type="qcurve" smooth="yes"/>
    </contour>
  </outline>
</glyph>
<glyph name="germandbls" format="2">
  <advance width="986"/>
  <unicode hex="00DF"/>
  <outline>
    <contour>
      <point x="105" y="-1" type="line"/>
      <point x="359" y="-1" type="line"/>
      <point x="359" y="1059" type="line" smooth="yes"/>
      <point x="359" y="1206"/>
      <point x="410" y="1338"/>
      <point x="456" y="1338" type="qcurve" smooth="yes"/>
      <point x="499" y="1338"/>
      <point x="541" y="1243"/>
      <point x="541" y="1172" type="qcurve" smooth="yes"/>
      <point x="541" y="1117"/>
      <point x="515" y="1040"/>
      <point x="499" y="1003" type="qcurve" smooth="yes"/>
      <point x="480" y="959"/>
      <point x="444" y="865"/>
      <point x="444" y="801" type="qcurve" smooth="yes"/>
      <point x="444" y="709"/>
      <point x="508" y="582"/>
      <point x="550" y="533" type="qcurve" smooth="yes"/>
      <point x="601" y="475"/>
      <point x="690" y="369"/>
      <point x="690" y="302" type="qcurve" smooth="yes"/>
      <point x="690" y="232"/>
      <point x="644" y="153"/>
      <point x="601" y="153" type="qcurve" smooth="yes"/>
      <point x="548" y="153"/>
      <point x="457" y="202"/>
      <point x="432" y="225" type="qcurve"/>
      <point x="404" y="58" type="line"/>
      <point x="430" y="30"/>
      <point x="564" y="-20"/>
      <point x="626" y="-20" type="qcurve" smooth="yes"/>
      <point x="778" y="-20"/>
      <point x="952" y="136"/>
      <point x="952" y="287" type="qcurve" smooth="yes"/>
      <point x="952" y="402"/>
      <point x="842" y="555"/>
      <point x="788" y="616" type="qcurve" smooth="yes"/>
      <point x="754" y="657"/>
      <point x="704" y="741"/>
      <point x="704" y="799" type="qcurve" smooth="yes"/>
      <point x="704" y="845"/>
      <point x="728" y="917"/>
      <point x="744" y="952" type="qcurve" smooth="yes"/>
      <point x="765" y="998"/>
      <point x="800" y="1105"/>
      <point x="800" y="1199" type="qcurve" smooth="yes"/>
      <point x="800" y="1329"/>
      <point x="618" y="1511"/>
      <point x="456" y="1511" type="qcurve" smooth="yes"/>
      <point x="305" y="1511"/>
      <point x="105" y="1284"/>
      <point x="105" y="1059" type="qcurve" smooth="yes"/>
    </contour>
  </outline>
</glyph>
<glyph name="ring" format="2">
  <advance width="853"/>
  <unicode hex="02DA"/>
  <outline>
    <contour>
      <point x="211" y="1336" type="qcurve" smooth="yes"/>
      <point x="211.0" y="1224.0"/>
      <point x="323.0" y="1104.0"/>
      <point x="427" y="1104" type="qcurve" smooth="yes"/>
      <point x="531.0" y="1104.0"/>
      <point x="642.0" y="1224.0"/>
      <point x="642" y="1336" type="qcurve" smooth="yes"/>
      <point x="642.0" y="1447.0"/>
      <point x="531.0" y="1567.0"/>
      <point x="427" y="1567" type="qcurve" smooth="yes"/>
      <point x="323.0" y="1567.0"/>
      <point x="211.0" y="1447.0"/>
    </contour>
    <contour>
      <point x="381" y="1336" type="qcurve" smooth="yes"/>
      <point x="381.0" y="1390.0"/>
      <point x="405.0" y="1448.0"/>
      <point x="427" y="1448" type="qcurve" smooth="yes"/>
      <point x="449.0" y="1448.0"/>
      <point x="472.0" y="1390.0"/>
      <point x="472" y="1336" type="qcurve" smooth="yes"/>
      <point x="472.0" y="1282.0"/>
      <point x="449.0" y="1223.0"/>
      <point x="427" y="1223" type="qcurve" smooth="yes"/>
      <point x="405.0" y="1223.0"/>
      <point x="381.0" y="1282.0"/>
    </contour>
  </outline>
</glyph>
<glyph name="endash" format="2">
  <advance width="986"/>
  <unicode hex="2013"/>
  <outline>
    <contour>
      <point x="99.71529494878135" y="552.2999823383964" type="line"/>
      <point x="886.2088308018368" y="552.2999823383964" type="line"/>
      <point x="886.2088308018368" y="718.6571882726952" type="line"/>
      <point x="99.71529494878135" y="718.6571882726952" type="line"/>
    </contour>
  </outline>
</glyph>
<glyph name="quotesinglbase" format="2">
  <advance width="422"/>
  <unicode hex="201A"/>
  <outline>
    <contour>
      <point x="-9.608937115516078" y="-205.96155160628845" type="qcurve"/>
      <point x="141.57536226930964" y="-301.2359022556391" type="line"/>
      <point x="234.80595010252904" y="-227.6801093643199"/>
      <point x="342.9762200956938" y="-24.0"/>
      <point x="342.9762200956938" y="98.51555023923446" type="qcurve" smooth="yes"/>
      <point x="342.9762200956938" y="260.55758714969244" type="line"/>
      <point x="98.77477785372523" y="260.55758714969244" type="line"/>
      <point x="98.77477785372523" y="98.51555023923446" type="line" smooth="yes"/>
      <point x="98.77477785372523" y="4.1225222146274785"/>
      <point x="44.90758714969241" y="-139.98906356801095"/>
    </contour>
  </outline>
</glyph>
<glyph name="two.inferior" format="2">
  <advance width="669"/>
  <unicode hex="2082"/>
  <outline>
    <contour>
      <point x="641.7747778537253" y="-239.0" type="line"/>
      <point x="243.77477785372523" y="-239.0" type="line"/>
      <point x="418.7747778537252" y="-93.0" type="line" smooth="yes"/>
      <point x="505.7747778537252" y="-14.0"/>
      <point x="610.7747778537253" y="117.0"/>
      <point x="610.7747778537253" y="197.0" type="qcurve" smooth="yes"/>
      <point x="610.7747778537253" y="305.0"/>
      <point x="458.7747778537252" y="433.0"/>
      <point x="324.7747778537252" y="433.0" type="qcurve" smooth="yes"/>
      <point x="184.77477785372523" y="433.0"/>
      <point x="24.77477785372522" y="279.0"/>
      <point x="24.77477785372522" y="172.0" type="qcurve"/>
      <point x="182.77477785372523" y="172.0" type="line"/>
      <point x="182.77477785372523" y="229.0"/>
      <point x="253.77477785372523" y="305.0"/>
      <point x="328.7747778537252" y="305.0" type="qcurve" smooth="yes"/>
      <point x="387.7747778537252" y="305.0"/>
      <point x="451.7747778537252" y="243.0"/>
      <point x="451.7747778537252" y="195.0" type="qcurve" smooth="yes"/>
      <point x="451.7747778537252" y="162.0"/>
      <point x="398.7747778537252" y="74.0"/>
      <point x="331.7747778537252" y="12.0" type="qcurve" smooth="yes"/>
      <point x="43.77477785372522" y="-259.0" type="line"/>
      <point x="43.77477785372522" y="-367.0" type="line"/>
      <point x="641.7747778537253" y="-367.0" type="line"/>
    </contour>
  </outline>
</glyph>
<glyph name="three.inferior" format="2">
  <advance width="669"/>
  <unicode hex="2083"/>
  <outline>
    <contour>
      <point x="224.77477785372523" y="92.0" type="line"/>
      <point x="224.77477785372523" y="14.0" type="line"/>
      <point x="335.7747778537252" y="14.0" type="line" smooth="yes"/>
      <point x="468.7747778537252" y="14.0"/>
      <point x="611.7747778537253" y="115.0"/>
      <point x="611.7747778537253" y="209.0" type="qcurve" smooth="yes"/>
      <point x="611.7747778537253" y="317.0"/>
      <point x="459.7747778537252" y="433.0"/>
      <point x="318.7747778537252" y="433.0" type="qcurve" smooth="yes"/>
      <point x="180.7747778537252" y="433.0"/>
      <point x="32.77477785372522" y="318.0"/>
      <point x="32.77477785372522" y="212.0" type="qcurve"/>
      <point x="189.77477785372523" y="212.0" type="line"/>
      <point x="189.77477785372523" y="257.0"/>
      <point x="257.7747778537252" y="305.0"/>
      <point x="321.7747778537252" y="305.0" type="qcurve" smooth="yes"/>
      <point x="385.7747778537252" y="305.0"/>
      <point x="454.7747778537252" y="251.0"/>
      <point x="454.7747778537252" y="201.0" type="qcurve" smooth="yes"/>
      <point x="454.7747778537252" y="148.0"/>
      <point x="378.7747778537252" y="92.0"/>
      <point x="308.7747778537252" y="92.0" type="qcurve" smooth="yes"/>
    </contour>
    <contour>
      <point x="224.77477785372523" y="-23.0" type="line"/>
      <point x="308.7747778537252" y="-23.0" type="line" smooth="yes"/>
      <point x="385.7747778537252" y="-23.0"/>
      <point x="467.7747778537252" y="-83.0"/>
      <point x="467.7747778537252" y="-139.0" type="qcurve" smooth="yes"/>
      <point x="467.7747778537252" y="-192.0"/>
      <point x="393.7747778537252" y="-250.0"/>
      <point x="324.7747778537252" y="-250.0" type="qcurve" smooth="yes"/>
      <point x="254.7747778537252" y="-250.0"/>
      <point x="178.77477785372523" y="-195.0"/>
      <point x="178.77477785372523" y="-144.0" type="qcurve"/>
      <point x="21.77477785372522" y="-144.0" type="line"/>
      <point x="21.77477785372522" y="-257.0"/>
      <point x="175.7747778537252" y="-378.0"/>
      <point x="319.7747778537252" y="-378.0" type="qcurve" smooth="yes"/>
      <point x="466.7747778537252" y="-378.0"/>
      <point x="625.7747778537253" y="-258.0"/>
      <point x="625.7747778537253" y="-147.0" type="qcurve" smooth="yes"/>
      <point x="625.7747778537253" y="-50.0"/>
      <point x="475.7747778537252" y="55.0"/>
      <point x="335.7747778537252" y="55.0" type="qcurve" smooth="yes"/>
      <point x="224.77477785372523" y="55.0" type="line"/>
    </contour>
  </outline>
</glyph>
<glyph name="indianrupee" format="2">
  <advance width="867"/>
  <unicode hex="20B9"/>
  <outline>
    <contour>
      <point x="39.64118332744614" y="548.8569410102438" type="line"/>
      <point x="388.4058636524196" y="0.0" type="line"/>
      <point x="692" y="0" type="line"/>
      <point x="330" y="549" type="line"/>
      <point x="350" y="549" type="line" smooth="yes"/>
      <point x="500" y="549"/>
      <point x="701.0" y="774.0"/>
      <point x="701" y="983" type="qcurve" smooth="yes"/>
      <point x="701.0" y="1093.0"/>
      <point x="645.0" y="1255.0"/>
      <point x="593" y="1295" type="qcurve"/>
      <point x="798" y="1295" type="line"/>
      <point x="834" y="1456" type="line"/>
      <point x="71.21388202048746" y="1456.0" type="line"/>
      <point x="34" y="1295" type="line"/>
      <point x="216" y="1295" type="line" smooth="yes"/>
      <point x="324" y="1295"/>
      <point x="440.0" y="1145.0"/>
      <point x="440" y="1005" type="qcurve" smooth="yes"/>
      <point x="440.0" y="863.0"/>
      <point x="324" y="710"/>
      <point x="216" y="710" type="qcurve" smooth="yes"/>
      <point x="81" y="710" type="line"/>
    </contour>
    <contour>
      <point x="62" y="922" type="line"/>
      <point x="796" y="922" type="line"/>
      <point x="831" y="1079" type="line"/>
      <point x="96" y="1079" type="line"/>
    </contour>
  </outline>
</glyph>
<glyph name="trademark" format="2">
  <advance width="1416"/>
  <unicode hex="2122"/>
  <outline>
    <contour>
      <point x="251.71529494878135" y="820.0" type="line"/>
      <point x="445.96304486047336" y="820.0" type="line"/>
      <point x="445.96304486047336" y="1303.1427057576827" type="line"/>
      <point x="566.7878417520311" y="1303.1427057576827" type="line"/>
      <point x="566.7878417520311" y="1456.0" type="line"/>
      <point x="129.8572942423172" y="1456.0" type="line"/>
      <point x="129.8572942423172" y="1303.1427057576827" type="line"/>
      <point x="251.71529494878135" y="1303.1427057576827" type="line"/>
    </contour>
    <contour>
      <point x="616" y="820" type="line"/>
      <point x="794" y="820" type="line"/>
      <point x="794" y="1067" type="line"/>
      <point x="893" y="820" type="line"/>
      <point x="975" y="820" type="line"/>
      <point x="1072" y="1069" type="line"/>
      <point x="1072" y="820" type="line"/>
      <point x="1254.057711056164" y="820.0" type="line"/>
      <point x="1254.057711056164" y="1456.0" type="line"/>
      <point x="1052" y="1456" type="line"/>
      <point x="936" y="1138" type="line"/>
      <point x="820" y="1456" type="line"/>
      <point x="616" y="1456" type="line"/>
    </contour>
  </outline>
</glyph>
<glyph name="minus" format="2">
  <advance width="853"/>
  <unicode hex="2212"/>
  <outline>
    <contour>
      <point x="116.64613210879547" y="584.4572589191099" type="line"/>
      <point x="736.605898975627" y="584.4572589191099" type="line"/>
      <point x="736.605898975627" y="763.5427410808901" type="line"/>
      <point x="116.64613210879547" y="763.5427410808901" type="line"/>
    </contour>
  </outline>
</glyph>
<glyph name="divisionslash" format="2">
  <advance width="486"/>
  <unicode hex="2215"/>
  <outline>
    <contour>
      <point x="-74.28470505121865" y="-125.0" type="line"/>
      <point x="124.29441893323914" y="-125.0" type="line"/>
      <point x="510.0833627693395" y="1456.0" type="line"/>
      <point x="311.9945249028612" y="1456.0" type="line"/>
    </contour>
  </outline>
</glyph>
<glyph name="fi" format="2">
  <advance width="803"/>
  <unicode hex="FB01"/>
  <outline>
    <contour>
      <point x="106.43924408336275" y="0.0" type="line"/>
      <point x="351.1918968562345" y="0.0" type="line"/>
      <point x="351.1918968562345" y="856.835245496291" type="line"/>
      <point x="351.1918968562345" y="871.720798304486" type="line"/>
      <point x="351.1918968562345" y="1112.8134051571883" type="line" smooth="yes"/>
      <point x="351.1918968562345" y="1214.1894206993993"/>
      <point x="392.68536206287536" y="1310.6993111974566"/>
      <point x="428.4036594842812" y="1310.6993111974566" type="qcurve" smooth="yes"/>
      <point x="448.3010455669375" y="1310.6993111974566"/>
      <point x="479.91955492758746" y="1293.185446838573"/>
      <point x="490.6692900035323" y="1285.39826916284" type="qcurve"/>
      <point x="506.89818438714235" y="1447.54221123278" type="line"/>
      <point x="483.24038910619396" y="1462.3307150343287"/>
      <point x="426.81949134581424" y="1478.0"/>
      <point x="397.4601766160368" y="1478.0" type="qcurve" smooth="yes"/>
      <point x="265.0882938890851" y="1478.0"/>
      <point x="106.43924408336275" y="1291.5711762628048"/>
      <point x="106.43924408336275" y="1112.8134051571883" type="qcurve" smooth="yes"/>
    </contour>
    <contour>
      <point x="6.228187919463089" y="770.1777039915224" type="line"/>
      <point x="446.60932885906044" y="770.1777039915224" type="line"/>
      <point x="446.60932885906044" y="939.8640339102791" type="line"/>
      <point x="214.54437654539032" y="939.8640339102791" type="line"/>
      <point x="200.91138466972802" y="939.8640339102791" type="line"/>
      <point x="6.228187919463089" y="939.8640339102791" type="line"/>
    </contour>
    <contour>
      <point x="474.4943518191452" y="0.0" type="line"/>
      <point x="719.7613104909926" y="0.0" type="line"/>
      <point x="719.7613104909926" y="939.8640339102791" type="line"/>
      <point x="474.4943518191452" y="939.8640339102791" type="line"/>
    </contour>
  </outline>
</glyph>
<glyph name="four.pnum" format="2">
  <advance width="859"/>
  <outline>
    <contour>
      <point x="430" y="0" type="line"/>
      <point x="703" y="0" type="line"/>
      <point x="703" y="1456" type="line"/>
      <point x="434" y="1456" type="line"/>
      <point x="11" y="524" type="line"/>
      <point x="11" y="336" type="line"/>
      <point x="846" y="336" type="line"/>
      <point x="846" y="509" type="line"/>
      <point x="532" y="509" type="line"/>
      <point x="505" y="509" type="line"/>
      <point x="248" y="509" type="line"/>
      <point x="420" y="968" type="line"/>
      <point x="430" y="968" type="line"/>
      <point x="430" y="426" type="line"/>
      <point x="430" y="394" type="line"/>
    </contour>
  </outline>
</glyph>
<glyph name="nine.pnum" format="2">
  <advance width="949"/>
  <outline>
    <contour>
      <point x="40" y="996" type="qcurve" smooth="yes"/>
      <point x="40" y="771"/>
      <point x="242" y="529"/>
      <point x="430" y="529" type="qcurve" smooth="yes"/>
      <point x="581" y="529"/>
      <point x="743" y="771"/>
      <point x="743" y="996" type="qcurve"/>
      <point x="632" y="996" type="line"/>
      <point x="632" y="856"/>
      <point x="544" y="706"/>
      <point x="462" y="706" type="qcurve" smooth="yes"/>
      <point x="389" y="706"/>
      <point x="311" y="856"/>
      <point x="311" y="996" type="qcurve" smooth="yes"/>
      <point x="311" y="1144"/>
      <point x="389" y="1303"/>
      <point x="462" y="1303" type="qcurve" smooth="yes"/>
      <point x="543" y="1303"/>
      <point x="630" y="1069"/>
      <point x="630" y="852" type="qcurve" smooth="yes"/>
      <point x="630" y="802" type="line" smooth="yes"/>
      <point x="630" y="492"/>
      <point x="401" y="159"/>
      <point x="188" y="159" type="qcurve" smooth="yes"/>
      <point x="174" y="159" type="line"/>
      <point x="174" y="-25" type="line"/>
      <point x="188" y="-25" type="line" smooth="yes"/>
      <point x="532" y="-25"/>
      <point x="901" y="409"/>
      <point x="901" y="812" type="qcurve" smooth="yes"/>
      <point x="901" y="842" type="line" smooth="yes"/>
      <point x="901" y="1150"/>
      <point x="674" y="1481"/>
      <point x="462" y="1481" type="qcurve" smooth="yes"/>
      <point x="259" y="1481"/>
      <point x="40" y="1230"/>
    </contour>
  </outline>
</glyph>
<glyph name="one.pnum" format="2">
  <advance width="643"/>
  <outline>
    <contour>
      <point x="257" y="0" type="line"/>
      <point x="527" y="0" type="line"/>
      <point x="527" y="1476" type="line"/>
      <point x="365" y="1476" type="line"/>
      <point x="54" y="1339" type="line"/>
      <point x="54" y="1150" type="line"/>
      <point x="257" y="1219" type="line"/>
    </contour>
  </outline>
</glyph>
<glyph name="seven.pnum" format="2">
  <advance width="856"/>
  <outline>
    <contour>
      <point x="164" y="0" type="line"/>
      <point x="435" y="0" type="line"/>
      <point x="800" y="1286" type="line"/>
      <point x="800" y="1456" type="line"/>
      <point x="42" y="1456" type="line"/>
      <point x="42" y="1252" type="line"/>
      <point x="526" y="1252" type="line"/>
    </contour>
  </outline>
</glyph>
<glyph name="three.pnum" format="2">
  <advance width="895"/>
  <outline>
    <contour>
      <point x="28" y="397" type="line" smooth="yes"/>
      <point x="28" y="174"/>
      <point x="228" y="-25"/>
      <point x="450" y="-25" type="qcurve" smooth="yes"/>
      <point x="670" y="-25"/>
      <point x="867" y="178"/>
      <point x="867" y="404" type="qcurve" smooth="yes"/>
      <point x="867" y="557"/>
      <point x="767" y="727"/>
      <point x="656" y="763" type="qcurve"/>
      <point x="656" y="767" type="line"/>
      <point x="749" y="814"/>
      <point x="831" y="970"/>
      <point x="831" y="1097" type="qcurve" smooth="yes"/>
      <point x="831" y="1299"/>
      <point x="651" y="1481"/>
      <point x="450" y="1481" type="qcurve" smooth="yes"/>
      <point x="242" y="1481"/>
      <point x="55" y="1293"/>
      <point x="55" y="1083" type="qcurve" smooth="yes"/>
      <point x="55" y="1067" type="line"/>
      <point x="326" y="1067" type="line"/>
      <point x="326" y="1083" type="line" smooth="yes"/>
      <point x="326" y="1199"/>
      <point x="385" y="1302"/>
      <point x="450" y="1302" type="qcurve" smooth="yes"/>
      <point x="509" y="1302"/>
      <point x="562" y="1199"/>
      <point x="562" y="1085" type="qcurve" smooth="yes"/>
      <point x="562" y="959"/>
      <point x="493" y="846"/>
      <point x="416" y="846" type="qcurve" smooth="yes"/>
      <point x="258" y="846" type="line"/>
      <point x="258" y="667" type="line"/>
      <point x="422" y="667" type="line" smooth="yes"/>
      <point x="515" y="667"/>
      <point x="598" y="548"/>
      <point x="598" y="415" type="qcurve" smooth="yes"/>
      <point x="598" y="277"/>
      <point x="528" y="154"/>
      <point x="450" y="154" type="qcurve" smooth="yes"/>
      <point x="370" y="154"/>
      <point x="298" y="269"/>
      <point x="298" y="397" type="qcurve" smooth="yes"/>
      <point x="298" y="413" type="line"/>
      <point x="28" y="413" type="line"/>
    </contour>
  </outline>
</glyph>
<glyph name="two.pnum" format="2">
  <advance width="895"/>
  <outline>
    <contour>
      <point x="50" y="0" type="line"/>
      <point x="856" y="0" type="line"/>
      <point x="856" y="194" type="line"/>
      <point x="352" y="194" type="line"/>
      <point x="713" y="751" type="line" smooth="yes"/>
      <point x="816" y="910"/>
      <point x="846" y="1046"/>
      <point x="846" y="1132" type="qcurve" smooth="yes"/>
      <point x="846" y="1305"/>
      <point x="632" y="1481"/>
      <point x="450" y="1481" type="qcurve" smooth="yes"/>
      <point x="264" y="1481"/>
      <point x="37" y="1271"/>
      <point x="37" y="1033" type="qcurve" smooth="yes"/>
      <point x="37" y="1018" type="line"/>
      <point x="308" y="1018" type="line"/>
      <point x="308" y="1033" type="line" smooth="yes"/>
      <point x="308" y="1204"/>
      <point x="386" y="1297"/>
      <point x="449" y="1297" type="qcurve" smooth="yes"/>
      <point x="508" y="1297"/>
      <point x="576" y="1230"/>
      <point x="576" y="1122" type="qcurve" smooth="yes"/>
      <point x="576" y="1049"/>
      <point x="516" y="911"/>
      <point x="464" y="831" type="qcurve" smooth="yes"/>
      <point x="50" y="179" type="line"/>
    </contour>
  </outline>
</glyph>
